OpenSim_Sub05_CSBaseline_LCS.mot
version=1
nRows=32
nColumns=11
inDegrees=no
endheader
time	Bot_Shank	2nd_Bot_Shank	2nd_Top_Shank	Top_Shank	Bot_Thigh	Med_Thigh	Top_Thigh	BNOx	BNOy	BNOZ
79.17000000	11237.41097915	11350.94318896	11657.14988403	11233.20240096	12676.26805999	12090.38472997	11792.41992979	200.75665784	-72.91073635	-101.99715970
79.18000000	11243.79709952	11344.23787202	11651.20493979	11229.39984598	12700.56361985	12086.98096068	11768.15796358	199.32902083	-71.41070793	-102.81892511
79.19000000	11247.47853155	11335.34200830	11647.67066511	11227.27723481	12727.13043493	12082.70054739	11743.92438710	197.81768701	-69.81934430	-102.94393170
79.20000000	11249.07414607	11324.87844652	11646.07216434	11226.58014355	12755.24500378	12078.00243561	11720.50388389	196.25291626	-68.18596726	-102.49795426
79.21000000	11249.20281389	11313.47003542	11645.93454185	11227.05414835	12784.18382491	12073.34557081	11698.68113750	194.66496843	-66.55989858	-101.60676760
79.22000000	11248.48340585	11301.73962373	11646.78290199	11228.44482531	12813.22339685	12069.18889849	11679.24083148	193.08410337	-64.99046003	-100.39614652
79.23000000	11247.53479276	11290.31006016	11648.14234914	11230.49775057	12841.64021813	12065.99136412	11662.96764935	191.54058096	-63.52697340	-98.99186585
79.24000000	11246.97584544	11279.80419345	11649.53798764	11232.95850024	12868.71078727	12064.21191321	11650.64627467	190.06466105	-62.21876046	-97.51970038
79.25000000	11247.37225737	11270.81254544	11650.51613007	11235.57597601	12893.68638271	12064.26305796	11642.99266334	188.68685175	-61.11343923	-96.10269684
79.26000000	11248.49403117	11263.44193202	11650.94042655	11238.14883973	12915.44091547	12065.86253117	11639.69440202	187.44137561	-60.23313441	-94.82308189
79.27000000	11249.49864509	11257.42681130	11650.91881431	11240.51405873	12932.55779845	12068.19322312	11639.64743673	186.36531458	-59.58034589	-93.73165881
79.28000000	11249.52782113	11252.49206304	11650.56551450	11242.50958571	12943.61297189	12070.42426604	11641.72734975	185.49582415	-59.15706873	-92.87842255
79.29000000	11247.72328129	11248.36256701	11649.99474824	11243.97337336	12947.18237607	12071.72479217	11644.80972335	184.87005984	-58.96529800	-92.31336809
79.30000000	11243.22674757	11244.76320296	11649.32073667	11244.74337436	12941.84195122	12071.26393377	11647.77013980	184.52517714	-59.00702879	-92.08649038
79.31000000	11235.17994195	11241.41885065	11648.65770093	11244.65754141	12926.16763762	12068.21082308	11649.48418137	184.49833156	-59.28425615	-92.24778438
79.32000000	11222.72458644	11238.05438987	11648.11986216	11243.55382719	12898.73537552	12061.73459236	11648.82743032	184.82667858	-59.79897516	-92.84724505
79.33000000	11205.15176325	11234.43449343	11647.81164568	11241.30896206	12858.42496782	12051.15122279	11644.83952083	185.54244724	-60.55228258	-93.91658014
79.34000000	11183.29449185	11230.73464259	11647.73634850	11238.20000219	12807.25317842	12037.29270776	11638.25369572	186.62700743	-61.53600132	-95.29870718
79.35000000	11158.89545202	11227.37267348	11647.83760738	11234.74017447	12749.08740988	12021.88540643	11630.80233604	188.03172487	-62.73648323	-96.72516763
79.36000000	11133.70908073	11224.76955465	11648.05828799	11231.44575826	12687.81898399	12006.66723755	11624.23073653	189.70757750	-64.14000943	-97.92606341
79.37000000	11109.48981495	11223.34625465	11648.34125598	11228.83303294	12627.33922253	11993.37611982	11620.28419197	191.60554326	-65.73286106	-98.63149646
79.38000000	11087.99209166	11223.52374202	11648.62937701	11227.41827786	12571.53944729	11983.74997199	11620.70799710	193.67660009	-67.50131926	-98.57156871
79.39000000	11070.97034784	11225.72298532	11648.86551675	11227.71777239	12524.31098004	11979.52671277	11627.24744669	195.87172592	-69.43166515	-97.47638209
79.40000000	11060.17902047	11230.36495309	11648.99254084	11230.24779590	12489.54514257	11982.44426090	11641.64783548	198.14189869	-71.51017987	-95.07603853
79.41000000	11057.25785352	11237.83460097	11648.96882683	11235.49072472	12470.88121844	11994.10079703	11665.51824973	200.43966677	-73.72085871	-91.11580398
79.42000000	11062.13044414	11247.97802489	11648.98485600	11243.42164533	12468.18725268	12014.00360644	11698.42969278	202.74107695	-76.01349413	-85.56784299
79.43000000	11073.39929619	11260.22650551	11649.40978357	11253.62513146	12478.42818337	12040.05039895	11738.38424776	205.04026513	-78.31154916	-78.57898709
79.44000000	11089.63293045	11274.00065299	11650.61736086	11265.67571151	12498.49427066	12070.09748056	11783.34363968	207.33183254	-80.53780954	-70.30056086
79.45000000	11109.39986768	11288.72107750	11652.98133917	11279.14791388	12525.27577466	12102.00115722	11831.26959358	209.61038040	-82.61506103	-60.88388888
79.46000000	11131.26862865	11303.80838920	11656.87546984	11293.61626697	12555.66295548	12133.61773491	11880.12383449	211.87050992	-84.46608937	-50.48029574
79.47000000	11153.80773412	11318.68319826	11662.67350418	11308.65529918	12586.54607325	12162.80351961	11927.86808744	214.10682235	-86.01368030	-39.24110600
79.48000000	11175.58570486	11332.76611484	11670.74919352	11323.83953891	12614.81538808	12187.41481728	11972.46407746	216.31391889	-87.18061959	-27.31764425
